#!OML:ASF F:\VICON\USERDATA\INSTALL\rory3\rory3.ASF
:FULLY-SPECIFIED
:DEGREES
61
root -0.04944195804006468 18.126410258436525 37.12735420854444 -3.289929013056235 -0.6423890783696946 -4.824569191320464
lfemur -8.039929819521673 -0.4906603819827635 -14.62026116726727
ltibia 65.44601356406268
lfoot 6.439591075097996 -10.54213885373335
ltoes -2.583020006019455
rfemur -13.539935533442954 5.852669278881882 30.79985703184688
rtibia 27.928153592195585
rfoot -10.847837465848157 -5.188127408955139
rtoes 9.19715335475083
lowerback 9.51538316470707 -0.34647127819392887 2.7064937007858667
upperback 0.5801453623992567 -0.022676915100661832 2.9405435292874933
thorax -4.73468192595487 -0.04046543969762928 1.6219410337137399
lowerneck -15.914537657484644 -2.661581277181061 -2.5905976409000337
upperneck 21.35123016818742 -3.410666337628905 1.4813852115093038
head 9.374646415729591 -1.6537614223388188 0.5356309416253895
lclavicle -2.2147963698988624e-15 -2.751342894949903e-17
lhumerus -26.082299407063363 -2.167365093173676 84.57065609027148
lradius 28.28237333283157
lwrist 4.653624017145154
lhand -26.635242032499573 22.722300016591685
lfingers 7.1250199999999975
lthumb -0.06778504360843113 52.70634509565458
rclavicle -2.2147963698988624e-15 -2.751342894949903e-17
rhumerus -31.424659121019378 -23.02209227874774 -77.22544345777207
rradius 21.84013277481189
rwrist 9.480728233950316
rhand -16.714735775896898 23.006794926834612
rfingers 7.1250199999999975
rthumb 9.510737756824861 -6.59848217181646
62
root -0.05765586289197716 18.14183382692915 37.06524794680837 -3.2692383906908384 -1.8528387528869898 -5.187824760548956
lfemur -13.15918708839046 0.8538709790146677 -14.302605455134414
ltibia 66.07208033625149
lfoot 0.6067020575052577 -6.562154059293972
ltoes -4.018330330495355
rfemur -10.24122610822938 5.994464756395586 32.02724456527295
rtibia 26.97709306549598
rfoot -13.123226697753708 -5.1459460261132275
rtoes 8.369454841882254
lowerback 9.567184885013344 0.307078146880774 3.597373703194286
upperback 0.6131799259768005 0.9359225094259863 2.6905361342524152
thorax -4.710103324460046 0.40889451963922846 0.8182679259845056
lowerneck -15.907620085568634 -2.7146917978435483 -2.474846270404033
upperneck 21.33598602259078 -3.504519058999792 1.4986894299385023
head 9.385061666914103 -1.6851744640934516 0.4991722327360236
lclavicle -1.991379948744261e-15 1.2151967169765377e-16
lhumerus -27.698557043317614 -1.4092948743339477 84.5633519008041
lradius 27.488737026153547
lwrist 4.846351733857669
lhand -26.83758913532106 22.269165237994223
lfingers 7.1250199999999975
lthumb -0.26321790363555414 52.25204290205978
rclavicle -1.991379948744261e-15 1.2151967169765377e-16
rhumerus -29.855898672066807 -20.035636651483248 -78.74327441664859
rradius 23.20202438419934
rwrist 7.700217765097008
rhand -16.830150692027445 22.072280129277303
rfingers 7.1250199999999975
rthumb 9.3993887922167 -7.534429573262235
63
root -0.044590638204036914 18.113026678408453 37.362248687778404 -3.0439268479714503 -2.9122176520306353 -5.598302500654276
lfemur -17.126037205069053 1.640366134065229 -13.85881958569362
ltibia 62.9947303414106
lfoot -2.8302663716881113 -2.8894117372167702
ltoes -4.435967730440657
rfemur -7.0369157651055 6.16581263339262 33.23086294937176
rtibia 26.6415753548064
rfoot -15.050291324299945 -5.083440111489357
rtoes 8.04981279202003
lowerback 9.675899142835785 0.9300506647814979 4.687680255448506
upperback 0.603401328598854 1.881275861861994 2.5204210929880686
thorax -4.713179869033239 0.8480430534815337 0.03625363973623141
lowerneck -16.038698977865845 -2.74410180434633 -2.344210651723238
upperneck 21.211690408376104 -3.547753978116922 1.4253526499631306
head 9.37199729462457 -1.7010852441237851 0.44691582034179267
lclavicle -1.5211688110735179e-15 4.3511243646145475e-16
lhumerus -29.33150500351702 -0.289523675294417 84.43609122217836
lradius 26.80000797105229
lwrist 5.254974632639724
lhand -27.23352878910968 21.690091653463295
lfingers 7.1250199999999975
lthumb -0.6456077551347269 51.670459199422005
rclavicle -1.5211688110735179e-15 4.3511243646145475e-16
rhumerus -28.272579952376265 -16.864837268034755 -79.92474244051648
rradius 24.769156504764016
rwrist 5.696314376746433
rhand -17.029621941822924 21.55908123272435
rfingers 7.1250199999999975
rthumb 9.206918205320154 -8.064614662694952
64
root -0.020162077355443564 18.046783141909554 37.71115765670718 -2.6026319109311995 -3.783801947200089 -6.230320840154709
lfemur -20.042999382969896 1.4243354410782243 -12.772731135611131
ltibia 55.42538129166827
lfoot -4.056387900028366 0.5987233511533676
ltoes -4.083881823415357
rfemur -3.929522720820307 6.366144650794315 34.41502582789957
rtibia 26.167060243584736
rfoot -16.911846998171207 -5.4144229335162315
rtoes 7.985568050626036
lowerback 9.75837651694409 1.467035293597636 5.865983911661017
upperback 0.5710970886635072 2.723975139522538 2.456180037877055
thorax -4.716599410796336 1.2372414582527684 -0.7066750331073436
lowerneck -16.289395612063434 -2.762504628202332 -2.2164268138706844
upperneck 20.96232798817687 -3.566838271921176 1.323763661952931
head 9.318061090647532 -1.7089528726815997 0.39341415913963984
lclavicle -1.2147843542234183e-15 6.393745871806162e-16
lhumerus -30.79871974077368 1.138198719522697 84.22161125152314
lradius 26.01734824903084
lwrist 5.440656780420993
lhand -27.745059804398885 21.13764123508844
lfingers 7.1250199999999975
lthumb -1.1396304994368818 51.11447654777663
rclavicle -1.2147843542234183e-15 6.393745871806162e-16
rhumerus -26.705290344597458 -13.805683572120738 -80.80763892245024
rradius 26.288933468130274
rwrist 3.7234462156462036
rhand -17.30997471899164 21.880765527206975
rfingers 7.1250199999999975
rthumb 8.936362154549382 -7.751476797379158
65
root -0.0026028428378825352 17.95185990373817 37.58926435259643 -2.0136189206904977 -4.6775345569494124 -7.110333089844353
lfemur -22.262094187062658 -0.08466185592169317 -11.075520163739814
ltibia 43.89956513556171
lfoot -4.453676546697988 4.009787710521522
ltoes -3.7431104990684765
rfemur -0.8866212627287897 6.480128809406978 35.39834160211179
rtibia 24.92898245624989
rfoot -19.086308604700285 -6.113510285460413
rtoes 7.334505551818331
lowerback 9.702744883975045 1.9300884440262411 6.898048779112712
upperback 0.5222260236892318 3.446382673133613 2.44004084306353
thorax -4.692877949235948 1.573486275214436 -1.419746757440001
lowerneck -16.612853840674017 -2.7840048001047633 -2.081783716577509
upperneck 20.623913828709675 -3.5968709195224484 1.251576021186334
head 9.232121462760865 -1.7185001460493585 0.3443783441554963
lclavicle -1.5060835177416667e-15 4.449788126725026e-16
lhumerus -32.2268422380649 2.7027307525961546 83.88109708362055
lradius 24.782315065210803
lwrist 5.224198493554238
lhand -28.20809071173356 20.904330617370668
lfingers 7.1250199999999975
lthumb -1.5868106222812495 50.87731183704895
rclavicle -1.5060835177416667e-15 4.449788126725026e-16
rhumerus -25.206361327363215 -11.320193047941249 -81.50672233347468
rradius 27.518857679435158
rwrist 2.120837719058886
rhand -17.62070613153781 22.616626534560595
rfingers 7.1250199999999975
rthumb 8.636462083453404 -7.03186975037014
66
root 0.026671616869023695 17.84491990904512 37.03027997572032 -1.3437692032432065 -5.576656259867333 -7.882076352853586
lfemur -23.342019439124314 -2.380584971904915 -9.209027604294887
ltibia 31.145103810165224
lfoot -4.706111729457659 7.049619516974093
ltoes -3.5275142321878357
rfemur 2.463178640603223 6.582221750512608 36.05390898974794
rtibia 23.61866616361149
rfoot -21.25262410620396 -6.731454706983488
rtoes 5.294153234831309
lowerback 9.496745087812817 2.365290260198425 7.600308843467202
upperback 0.46375629995713424 4.082638023363125 2.421479583863896
thorax -4.628022727065153 1.8776263691405681 -1.9383435323678952
lowerneck -16.920263069856947 -2.817272125756051 -1.9062407714762313
upperneck 20.322369338720197 -3.6580913323759083 1.2550746495127922
head 9.163409915778097 -1.7366407994953355 0.3059881683246871
lclavicle -1.846343741415066e-15 2.1800999101838622e-16
lhumerus -33.56307588346045 4.50021372143927 83.31485741819324
lradius 23.07489501142088
lwrist 4.51906905967257
lhand -28.323853302412537 21.460291015126508
lfingers 7.1250199999999975
lthumb -1.6986022772940959 51.431118637986245
rclavicle -1.846343741415066e-15 2.1800999101838622e-16
rhumerus -23.818083409713445 -9.79274433926983 -81.90215418917772
rradius 28.379211199556856
rwrist 1.2201863451034125
rhand -17.857913879016206 23.32166368417929
rfingers 7.1250199999999975
rthumb 8.407493036980272 -6.335599359443522
67
root 0.08132637612440763 17.739923940558416 36.33872889207667 -0.8000415494016508 -6.302873839716752 -8.232666442230837
lfemur -23.542002739586778 -4.33064983315817 -8.133482666998596
ltibia 20.9520325069921
lfoot -4.751379741552701 8.433921331205559
ltoes -3.204768785059712
rfemur 5.7611485041693395 6.719065003556076 36.06020128013297
rtibia 22.959607578494616
rfoot -22.79045983872576 -6.657446512752584
rtoes 1.826157597755657
lowerback 9.222092820491104 2.7057267106624012 7.784633535623795
upperback 0.40457004027286425 4.529666052623311 2.3423796364802927
thorax -4.548536345955225 2.0998007296094583 -2.204902754285666
lowerneck -17.11328699507516 -2.8709224562017712 -1.7316557185726447
upperneck 20.152724996010875 -3.7607933597500947 1.3014841714501864
head 9.134126103977835 -1.7691344968355702 0.2735293091292843
lclavicle -2.1571357115365758e-15 1.079501367142177e-17
lhumerus -34.783834423355415 6.487796619093972 82.45826358842572
lradius 21.039387367721613
lwrist 3.138586775639996
lhand -28.01981492491068 22.613073391646076
lfingers 7.1250199999999975
lthumb -1.404950455454986 52.5855114021662
rclavicle -2.1571357115365758e-15 1.079501367142177e-17
rhumerus -22.794037047023185 -9.478207914460073 -81.9611350895446
rradius 28.833684452751307
rwrist 1.021422953646308
rhand -18.016398556018004 23.79295136302164
rfingers 7.1250199999999975
rthumb 8.254466687416619 -5.869287655871397
